<svg width="217" height="253" viewBox="0 0 217 253" fill="none" xmlns="http://www.w3.org/2000/svg">
<path d="M179.733 221.962H152.748C152.548 220.972 150.449 217.706 146.451 212.163C133.658 221.071 119.166 225.525 102.975 225.525C94.5796 225.525 86.6839 224.436 79.2879 222.259C71.8919 220.279 64.5959 216.221 57.3999 210.085C50.4037 203.75 45.2065 195.733 41.8084 186.034C31.8138 158.519 40.4091 133.379 67.5943 110.614V110.318C57.5998 96.263 53.0023 83.0993 53.8018 70.8263C54.8013 58.5534 60.2983 48.2599 70.2928 39.946C80.4873 31.6321 92.6806 27.4751 106.873 27.4751C115.868 27.4751 123.664 28.9597 130.26 31.929C136.856 34.8983 141.654 38.4614 144.652 42.6183C147.651 46.7753 150.049 50.9323 151.848 55.0892C153.647 59.2462 154.647 62.8093 154.847 65.7786L155.446 70.2325H139.555C139.355 69.0448 139.055 67.5601 138.655 65.7786C138.456 63.997 137.556 60.8298 135.957 56.2769C134.358 51.5261 132.359 47.4681 129.96 44.103C127.562 40.5398 124.063 37.3726 119.466 34.6013C114.868 31.6321 109.571 30.2464 103.575 30.4444C95.1792 30.6423 87.6833 34.2054 81.0869 41.1337C74.4905 47.864 70.7925 56.178 69.993 66.0755C69.1934 75.973 72.4916 86.4644 79.8876 97.5497L154.547 194.348C164.941 177.72 168.039 160.3 163.842 142.089C162.842 137.14 161.243 132.884 159.044 129.321C156.846 125.56 154.847 123.085 153.048 121.898L150.349 120.116H174.636C176.435 123.481 177.834 130.805 178.834 142.089C180.633 164.259 174.236 183.757 159.644 200.583C159.644 200.781 159.844 201.078 160.244 201.474C167.84 211.569 174.336 218.399 179.733 221.962ZM107.473 221.665C121.465 221.467 133.458 216.815 143.453 207.709C139.855 202.761 115.368 171.286 69.993 113.287C62.1972 121.799 57.2 132.389 55.0012 145.058C52.8024 157.529 53.2022 169.505 56.2005 180.986C59.3988 192.269 65.4954 201.969 74.4905 210.085C83.6855 218.003 94.6795 221.863 107.473 221.665Z" fill="#9F0028"/>
</svg>
